<svg width="181" height="50" viewBox="0 0 181 50" fill="none" xmlns="http://www.w3.org/2000/svg">
<path d="M15.7512 4.05897C18.4488 4.05897 20.7811 4.63502 22.7481 5.78711C24.7151 6.93921 26.2325 8.5971 27.3003 10.7608C28.3681 12.8964 28.902 15.4394 28.902 18.3899C28.902 21.3404 28.3681 23.8975 27.3003 26.0612C26.2325 28.1968 24.7151 29.8406 22.7481 30.9927C20.7811 32.1448 18.4488 32.7209 15.7512 32.7209C13.0536 32.7209 10.7213 32.1448 8.75434 30.9927C6.81545 29.8406 5.31211 28.1968 4.24431 26.0612C3.17651 23.8975 2.64261 21.3404 2.64261 18.3899C2.64261 15.4394 3.17651 12.8964 4.24431 10.7608C5.31211 8.5971 6.81545 6.93921 8.75434 5.78711C10.7213 4.63502 13.0536 4.05897 15.7512 4.05897ZM15.7512 7.9789C13.1379 7.9789 11.0866 8.89215 9.59734 10.7186C8.10805 12.517 7.3634 15.0741 7.3634 18.3899C7.3634 21.7057 8.10805 24.2769 9.59734 26.1033C11.0866 27.9017 13.1379 28.8009 15.7512 28.8009C18.3926 28.8009 20.458 27.9017 21.9473 26.1033C23.4365 24.2769 24.1812 21.7057 24.1812 18.3899C24.1812 15.0741 23.4365 12.517 21.9473 10.7186C20.458 8.89215 18.3926 7.9789 15.7512 7.9789ZM54.8712 8.35825H39.2758V16.4089H51.4992V20.3288H39.2758V32.2994H34.7658V4.48047H54.8712V8.35825ZM79.7956 8.35825H64.2002V16.4089H76.4236V20.3288H64.2002V32.2994H59.6902V4.48047H79.7956V8.35825Z" fill="#970048"/>
<path d="M82.6009 32.2994V11.2244H86.4365L86.858 15.0179C88.0101 12.2079 90.216 10.8029 93.4756 10.8029C93.8971 10.8029 94.3186 10.8451 94.7401 10.9294C95.1616 10.9856 95.5128 11.0839 95.7938 11.2244L95.1616 15.1865C94.8525 15.0741 94.5012 14.9898 94.1078 14.9336C93.7425 14.8493 93.2367 14.8072 92.5904 14.8072C91.6912 14.8072 90.8201 15.046 89.9771 15.5237C89.1622 15.9733 88.4738 16.6758 87.9118 17.6312C87.3779 18.5585 87.1109 19.7247 87.1109 21.1297V32.2994H82.6009ZM110.939 18.7693C110.939 17.3643 110.546 16.2824 109.759 15.5237C109 14.7369 107.946 14.3435 106.598 14.3435C105.333 14.3435 104.237 14.6386 103.31 15.2287C102.411 15.8188 101.765 16.7742 101.371 18.0949L97.5776 16.4932C98.1115 14.7791 99.1512 13.4022 100.697 12.3625C102.27 11.3228 104.293 10.8029 106.766 10.8029C108.424 10.8029 109.899 11.0839 111.192 11.6459C112.513 12.1798 113.538 13.0088 114.269 14.1328C115.028 15.2287 115.407 16.6196 115.407 18.3056V27.705C115.407 28.7447 115.927 29.2646 116.967 29.2646C117.472 29.2646 117.964 29.1943 118.442 29.0538L118.189 32.1729C117.543 32.482 116.728 32.6366 115.744 32.6366C114.62 32.6366 113.651 32.3837 112.836 31.8779C112.021 31.3721 111.473 30.6134 111.192 29.6018C110.518 30.6415 109.548 31.4283 108.284 31.9622C107.019 32.468 105.755 32.7209 104.49 32.7209C102.495 32.7209 100.837 32.2432 99.5165 31.2878C98.1958 30.3324 97.5355 28.8993 97.5355 26.9885C97.5355 25.443 98.0413 24.1645 99.0529 23.1529C100.093 22.1413 101.554 21.4388 103.436 21.0454L110.939 19.5701V18.7693ZM102.088 26.6513C102.088 27.4381 102.383 28.0703 102.973 28.548C103.591 28.9976 104.406 29.2224 105.417 29.2224C106.373 29.2224 107.272 29.0679 108.115 28.7588C108.958 28.4497 109.632 27.9439 110.138 27.2414C110.672 26.5389 110.939 25.6256 110.939 24.5017V22.7314L105.628 23.8273C104.42 24.0521 103.521 24.3752 102.931 24.7967C102.369 25.2182 102.088 25.8364 102.088 26.6513ZM130.005 32.7209C128.263 32.7209 126.689 32.2853 125.284 31.4142C123.879 30.5431 122.755 29.2927 121.912 27.6629C121.097 26.0331 120.69 24.0802 120.69 21.8041C120.69 19.4437 121.125 17.4486 121.997 15.8188C122.868 14.189 124.034 12.9526 125.495 12.1096C126.956 11.2385 128.558 10.8029 130.3 10.8029C131.817 10.8029 133.138 11.1682 134.262 11.8988C135.414 12.6013 136.271 13.5427 136.833 14.7229V1.74072H141.343V32.2994H137.339L137.086 28.2951C136.524 29.7001 135.597 30.796 134.304 31.5828C133.012 32.3415 131.579 32.7209 130.005 32.7209ZM130.974 29.096C132.745 29.096 134.164 28.4216 135.232 27.0728C136.299 25.724 136.833 23.8694 136.833 21.509C136.833 19.3172 136.299 17.6031 135.232 16.3667C134.192 15.1022 132.829 14.47 131.143 14.47C129.26 14.47 127.799 15.1163 126.759 16.4089C125.72 17.7015 125.2 19.4858 125.2 21.7619C125.2 24.038 125.706 25.8364 126.717 27.1571C127.729 28.4497 129.148 29.096 130.974 29.096ZM149.771 7.68385C148.788 7.68385 148.029 7.44501 147.495 6.96731C146.989 6.46151 146.737 5.75901 146.737 4.85981C146.737 3.96062 146.989 3.27217 147.495 2.79447C148.029 2.31677 148.788 2.07792 149.771 2.07792C150.727 2.07792 151.457 2.31677 151.963 2.79447C152.497 3.27217 152.764 3.96062 152.764 4.85981C152.764 5.75901 152.497 6.46151 151.963 6.96731C151.457 7.44501 150.727 7.68385 149.771 7.68385ZM152.005 11.2244V32.2994H147.495V11.2244H152.005ZM167.365 10.8029C169.417 10.8029 171.229 11.2385 172.803 12.1096C174.376 12.9807 175.599 14.2452 176.47 15.9031C177.369 17.5329 177.818 19.4858 177.818 21.7619C177.818 24.038 177.369 26.005 176.47 27.6629C175.599 29.2927 174.376 30.5431 172.803 31.4142C171.229 32.2853 169.417 32.7209 167.365 32.7209C165.314 32.7209 163.502 32.2853 161.928 31.4142C160.354 30.5431 159.118 29.2927 158.219 27.6629C157.32 26.005 156.87 24.038 156.87 21.7619C156.87 19.4858 157.32 17.5329 158.219 15.9031C159.118 14.2452 160.354 12.9807 161.928 12.1096C163.502 11.2385 165.314 10.8029 167.365 10.8029ZM167.365 14.3435C165.511 14.3435 164.049 14.9898 162.982 16.2824C161.914 17.5469 161.38 19.3734 161.38 21.7619C161.38 24.1504 161.914 25.9909 162.982 27.2835C164.049 28.548 165.511 29.1803 167.365 29.1803C169.22 29.1803 170.667 28.548 171.707 27.2835C172.775 25.9909 173.308 24.1504 173.308 21.7619C173.308 19.3734 172.775 17.5469 171.707 16.2824C170.667 14.9898 169.22 14.3435 167.365 14.3435Z" fill="#970048"/>
<rect x="3.58396" y="41.2188" width="175.624" height="3.51249" rx="1.75624" fill="#970048"/>
<rect x="1.82772" y="35.95" width="72.006" height="14.05" rx="7.02498" fill="#970048"/>
<path d="M19.9787 45.5073C19.3143 45.5073 18.7675 45.3931 18.3384 45.1647C17.9093 44.9363 17.584 44.6422 17.3625 44.2823L17.9854 43.7113C18.1446 44.0504 18.3972 44.3169 18.7433 44.5107C19.0893 44.6975 19.515 44.791 20.0202 44.791C20.4978 44.791 20.8681 44.7183 21.1311 44.5729C21.401 44.4276 21.536 44.2096 21.536 43.9189C21.536 43.6836 21.4391 43.4967 21.2453 43.3583C21.0584 43.2199 20.8231 43.123 20.5393 43.0676L19.2727 42.808C18.9751 42.7458 18.6983 42.6592 18.4422 42.5485C18.1861 42.4378 17.9785 42.282 17.8193 42.0813C17.667 41.8737 17.5909 41.6038 17.5909 41.2715C17.5909 40.9532 17.6843 40.6625 17.8712 40.3995C18.0581 40.1365 18.3245 39.9254 18.6706 39.7662C19.0236 39.607 19.4423 39.5274 19.9268 39.5274C20.4943 39.5274 20.9719 39.6278 21.3595 39.8285C21.754 40.0223 22.0758 40.3233 22.325 40.7317L21.7021 41.2923C21.5152 40.9186 21.2833 40.6521 21.0065 40.4929C20.7296 40.3268 20.3663 40.2437 19.9164 40.2437C19.4458 40.2437 19.0789 40.3406 18.8159 40.5344C18.5529 40.7282 18.4214 40.9566 18.4214 41.2196C18.4214 41.4688 18.5149 41.6522 18.7017 41.7699C18.8955 41.8875 19.1412 41.9775 19.4388 42.0398L20.7885 42.3201C21.0722 42.3755 21.3318 42.462 21.5671 42.5796C21.8094 42.6973 22.0031 42.8565 22.1485 43.0572C22.2938 43.251 22.3665 43.5036 22.3665 43.8151C22.3665 44.1611 22.2662 44.4622 22.0654 44.7183C21.8647 44.9744 21.5844 45.1716 21.2245 45.3101C20.8715 45.4416 20.4563 45.5073 19.9787 45.5073ZM28.7009 43.8566C28.5625 44.4034 28.2614 44.8152 27.7977 45.092C27.334 45.3689 26.7803 45.5073 26.1366 45.5073C25.576 45.5073 25.0846 45.3862 24.6624 45.1439C24.2402 44.9017 23.9115 44.5591 23.6762 44.1162C23.4408 43.6663 23.3232 43.1333 23.3232 42.5174C23.3232 41.9014 23.4408 41.3719 23.6762 40.9289C23.9115 40.4791 24.2402 40.133 24.6624 39.8908C25.0915 39.6485 25.5933 39.5274 26.1678 39.5274C26.7838 39.5274 27.3029 39.6589 27.7251 39.9219C28.1472 40.1849 28.4379 40.5794 28.5971 41.1054L27.8081 41.4584C27.7043 41.0431 27.5209 40.7386 27.2579 40.5448C27.0018 40.3441 26.6315 40.2437 26.147 40.2437C25.5587 40.2437 25.0777 40.4445 24.704 40.8459C24.3371 41.2404 24.1537 41.7976 24.1537 42.5174C24.1537 42.9949 24.2368 43.4033 24.4029 43.7424C24.5759 44.0815 24.8078 44.3411 25.0985 44.521C25.3961 44.701 25.7317 44.791 26.1055 44.791C26.6453 44.791 27.0606 44.6906 27.3513 44.4899C27.642 44.2892 27.8254 43.9881 27.9015 43.5867L28.7009 43.8566ZM29.8456 45.4243V39.6105H32.2646C32.9013 39.6105 33.41 39.7662 33.7907 40.0776C34.1714 40.3822 34.3617 40.8009 34.3617 41.3338C34.3617 41.756 34.244 42.109 34.0087 42.3928C33.7734 42.6696 33.4481 42.86 33.0328 42.9638L34.7147 45.4243H33.7595L32.14 43.0572H30.6762V45.4243H29.8456ZM30.6762 42.3512H32.2438C33.102 42.3512 33.5311 42.0156 33.5311 41.3442C33.5311 40.6659 33.102 40.3268 32.2438 40.3268H30.6762V42.3512ZM35.136 45.4243L37.4927 39.6105H38.479L40.8356 45.4243H39.9532L39.3303 43.8358H36.6414L36.0185 45.4243H35.136ZM37.7003 41.1158L36.9217 43.1195H39.05L38.2713 41.1158L37.991 40.3476H37.9806L37.7003 41.1158ZM44.0927 39.6105C44.7363 39.6105 45.2485 39.7696 45.6292 40.088C46.0168 40.4064 46.2106 40.8459 46.2106 41.4065C46.2106 41.9533 46.0168 42.3859 45.6292 42.7042C45.2485 43.0226 44.7363 43.1818 44.0927 43.1818H42.6704V45.4243H41.8398V39.6105H44.0927ZM44.103 42.4654C44.9544 42.4654 45.38 42.1125 45.38 41.4065C45.38 40.6867 44.9544 40.3268 44.103 40.3268H42.6704V42.4654H44.103ZM47.4212 45.4243V39.6105H51.7816V40.3268H48.2518V42.1228H51.0133V42.8392H48.2518V44.7079H51.9166V45.4243H47.4212ZM53.1548 45.4243V39.6105H55.5737C56.2105 39.6105 56.7192 39.7662 57.0998 40.0776C57.4805 40.3822 57.6708 40.8009 57.6708 41.3338C57.6708 41.756 57.5532 42.109 57.3178 42.3928C57.0825 42.6696 56.7572 42.86 56.342 42.9638L58.0238 45.4243H57.0687L55.4491 43.0572H53.9853V45.4243H53.1548ZM53.9853 42.3512H55.5529C56.4112 42.3512 56.8403 42.0156 56.8403 41.3442C56.8403 40.6659 56.4112 40.3268 55.5529 40.3268H53.9853V42.3512Z" fill="white"/>
</svg>
