<svg width="181" height="50" viewBox="0 0 181 50" fill="none" xmlns="http://www.w3.org/2000/svg">
<path d="M15.7332 4.05897C18.4307 4.05897 20.763 4.63502 22.73 5.78711C24.697 6.93921 26.2144 8.5971 27.2822 10.7608C28.35 12.8964 28.8839 15.4394 28.8839 18.3899C28.8839 21.3404 28.35 23.8975 27.2822 26.0612C26.2144 28.1968 24.697 29.8406 22.73 30.9927C20.763 32.1448 18.4307 32.7209 15.7332 32.7209C13.0356 32.7209 10.7033 32.1448 8.73628 30.9927C6.79738 29.8406 5.29404 28.1968 4.22624 26.0612C3.15845 23.8975 2.62455 21.3404 2.62455 18.3899C2.62455 15.4394 3.15845 12.8964 4.22624 10.7608C5.29404 8.5971 6.79738 6.93921 8.73628 5.78711C10.7033 4.63502 13.0356 4.05897 15.7332 4.05897ZM15.7332 7.9789C13.1199 7.9789 11.0686 8.89215 9.57928 10.7186C8.08998 12.517 7.34533 15.0741 7.34533 18.3899C7.34533 21.7057 8.08998 24.2769 9.57928 26.1033C11.0686 27.9017 13.1199 28.8009 15.7332 28.8009C18.3745 28.8009 20.4399 27.9017 21.9292 26.1033C23.4185 24.2769 24.1631 21.7057 24.1631 18.3899C24.1631 15.0741 23.4185 12.517 21.9292 10.7186C20.4399 8.89215 18.3745 7.9789 15.7332 7.9789ZM54.8532 8.35825H39.2577V16.4089H51.4812V20.3288H39.2577V32.2994H34.7477V4.48047H54.8532V8.35825ZM79.7776 8.35825H64.1821V16.4089H76.4056V20.3288H64.1821V32.2994H59.6721V4.48047H79.7776V8.35825Z" fill="#00109B"/>
<path d="M82.5829 32.2994V11.2244H86.4185L86.84 15.0179C87.9921 12.2079 90.1979 10.8029 93.4575 10.8029C93.879 10.8029 94.3005 10.8451 94.722 10.9294C95.1435 10.9856 95.4948 11.0839 95.7758 11.2244L95.1435 15.1865C94.8344 15.0741 94.4832 14.9898 94.0898 14.9336C93.7245 14.8493 93.2187 14.8072 92.5724 14.8072C91.6732 14.8072 90.8021 15.046 89.9591 15.5237C89.1442 15.9733 88.4557 16.6758 87.8937 17.6312C87.3598 18.5585 87.0929 19.7247 87.0929 21.1297V32.2994H82.5829ZM110.921 18.7693C110.921 17.3643 110.528 16.2824 109.741 15.5237C108.982 14.7369 107.928 14.3435 106.58 14.3435C105.315 14.3435 104.219 14.6386 103.292 15.2287C102.393 15.8188 101.746 16.7742 101.353 18.0949L97.5596 16.4932C98.0935 14.7791 99.1331 13.4022 100.679 12.3625C102.252 11.3228 104.275 10.8029 106.748 10.8029C108.406 10.8029 109.881 11.0839 111.174 11.6459C112.495 12.1798 113.52 13.0088 114.251 14.1328C115.01 15.2287 115.389 16.6196 115.389 18.3056V27.705C115.389 28.7447 115.909 29.2646 116.948 29.2646C117.454 29.2646 117.946 29.1943 118.424 29.0538L118.171 32.1729C117.525 32.482 116.71 32.6366 115.726 32.6366C114.602 32.6366 113.633 32.3837 112.818 31.8779C112.003 31.3721 111.455 30.6134 111.174 29.6018C110.5 30.6415 109.53 31.4283 108.266 31.9622C107.001 32.468 105.737 32.7209 104.472 32.7209C102.477 32.7209 100.819 32.2432 99.4984 31.2878C98.1778 30.3324 97.5174 28.8993 97.5174 26.9885C97.5174 25.443 98.0232 24.1645 99.0348 23.1529C100.074 22.1413 101.536 21.4388 103.418 21.0454L110.921 19.5701V18.7693ZM102.07 26.6513C102.07 27.4381 102.365 28.0703 102.955 28.548C103.573 28.9976 104.388 29.2224 105.399 29.2224C106.355 29.2224 107.254 29.0679 108.097 28.7588C108.94 28.4497 109.614 27.9439 110.12 27.2414C110.654 26.5389 110.921 25.6256 110.921 24.5017V22.7314L105.61 23.8273C104.402 24.0521 103.503 24.3752 102.913 24.7967C102.351 25.2182 102.07 25.8364 102.07 26.6513ZM129.987 32.7209C128.245 32.7209 126.671 32.2853 125.266 31.4142C123.861 30.5431 122.737 29.2927 121.894 27.6629C121.079 26.0331 120.672 24.0802 120.672 21.8041C120.672 19.4437 121.107 17.4486 121.978 15.8188C122.85 14.189 124.016 12.9526 125.477 12.1096C126.938 11.2385 128.54 10.8029 130.282 10.8029C131.799 10.8029 133.12 11.1682 134.244 11.8988C135.396 12.6013 136.253 13.5427 136.815 14.7229V1.74072H141.325V32.2994H137.321L137.068 28.2951C136.506 29.7001 135.579 30.796 134.286 31.5828C132.994 32.3415 131.561 32.7209 129.987 32.7209ZM130.956 29.096C132.727 29.096 134.146 28.4216 135.214 27.0728C136.281 25.724 136.815 23.8694 136.815 21.509C136.815 19.3172 136.281 17.6031 135.214 16.3667C134.174 15.1022 132.811 14.47 131.125 14.47C129.242 14.47 127.781 15.1163 126.741 16.4089C125.702 17.7015 125.182 19.4858 125.182 21.7619C125.182 24.038 125.688 25.8364 126.699 27.1571C127.711 28.4497 129.13 29.096 130.956 29.096ZM149.753 7.68385C148.77 7.68385 148.011 7.44501 147.477 6.96731C146.971 6.46151 146.718 5.75901 146.718 4.85981C146.718 3.96062 146.971 3.27217 147.477 2.79447C148.011 2.31677 148.77 2.07792 149.753 2.07792C150.709 2.07792 151.439 2.31677 151.945 2.79447C152.479 3.27217 152.746 3.96062 152.746 4.85981C152.746 5.75901 152.479 6.46151 151.945 6.96731C151.439 7.44501 150.709 7.68385 149.753 7.68385ZM151.987 11.2244V32.2994H147.477V11.2244H151.987ZM167.347 10.8029C169.399 10.8029 171.211 11.2385 172.785 12.1096C174.358 12.9807 175.58 14.2452 176.452 15.9031C177.351 17.5329 177.8 19.4858 177.8 21.7619C177.8 24.038 177.351 26.005 176.452 27.6629C175.58 29.2927 174.358 30.5431 172.785 31.4142C171.211 32.2853 169.399 32.7209 167.347 32.7209C165.296 32.7209 163.483 32.2853 161.91 31.4142C160.336 30.5431 159.1 29.2927 158.201 27.6629C157.301 26.005 156.852 24.038 156.852 21.7619C156.852 19.4858 157.301 17.5329 158.201 15.9031C159.1 14.2452 160.336 12.9807 161.91 12.1096C163.483 11.2385 165.296 10.8029 167.347 10.8029ZM167.347 14.3435C165.493 14.3435 164.031 14.9898 162.964 16.2824C161.896 17.5469 161.362 19.3734 161.362 21.7619C161.362 24.1504 161.896 25.9909 162.964 27.2835C164.031 28.548 165.493 29.1803 167.347 29.1803C169.202 29.1803 170.649 28.548 171.689 27.2835C172.756 25.9909 173.29 24.1504 173.29 21.7619C173.29 19.3734 172.756 17.5469 171.689 16.2824C170.649 14.9898 169.202 14.3435 167.347 14.3435Z" fill="#00109B"/>
<rect x="3.56592" y="41.2188" width="175.624" height="3.51249" rx="1.75624" fill="#00109B"/>
<rect x="1.80966" y="35.95" width="72.006" height="14.05" rx="7.02498" fill="#00109B"/>
<path d="M30.7227 45.4243L33.0794 39.6105H34.0657L36.4223 45.4243H35.5399L34.917 43.8358H32.2281L31.6052 45.4243H30.7227ZM33.287 41.1158L32.5084 43.1195H34.6367L33.858 41.1158L33.5777 40.3476H33.5674L33.287 41.1158ZM39.6794 39.6105C40.3231 39.6105 40.8352 39.7696 41.2159 40.088C41.6035 40.4064 41.7973 40.8459 41.7973 41.4065C41.7973 41.9533 41.6035 42.3859 41.2159 42.7042C40.8352 43.0226 40.3231 43.1818 39.6794 43.1818H38.2571V45.4243H37.4265V39.6105H39.6794ZM39.6898 42.4654C40.5411 42.4654 40.9667 42.1125 40.9667 41.4065C40.9667 40.6867 40.5411 40.3268 39.6898 40.3268H38.2571V42.4654H39.6898ZM43.8385 39.6105V45.4243H43.008V39.6105H43.8385Z" fill="white"/>
</svg>
