<svg width="181" height="50" viewBox="0 0 181 50" fill="none" xmlns="http://www.w3.org/2000/svg">
<path d="M15.7151 4.05897C18.4127 4.05897 20.745 4.63502 22.712 5.78711C24.679 6.93921 26.1964 8.5971 27.2642 10.7608C28.3319 12.8964 28.8658 15.4394 28.8658 18.3899C28.8658 21.3404 28.3319 23.8975 27.2642 26.0612C26.1964 28.1968 24.679 29.8406 22.712 30.9927C20.745 32.1448 18.4127 32.7209 15.7151 32.7209C13.0175 32.7209 10.6852 32.1448 8.71821 30.9927C6.77932 29.8406 5.27597 28.1968 4.20818 26.0612C3.14038 23.8975 2.60648 21.3404 2.60648 18.3899C2.60648 15.4394 3.14038 12.8964 4.20818 10.7608C5.27597 8.5971 6.77932 6.93921 8.71821 5.78711C10.6852 4.63502 13.0175 4.05897 15.7151 4.05897ZM15.7151 7.9789C13.1018 7.9789 11.0505 8.89215 9.56121 10.7186C8.07191 12.517 7.32727 15.0741 7.32727 18.3899C7.32727 21.7057 8.07191 24.2769 9.56121 26.1033C11.0505 27.9017 13.1018 28.8009 15.7151 28.8009C18.3565 28.8009 20.4218 27.9017 21.9111 26.1033C23.4004 24.2769 24.1451 21.7057 24.1451 18.3899C24.1451 15.0741 23.4004 12.517 21.9111 10.7186C20.4218 8.89215 18.3565 7.9789 15.7151 7.9789ZM54.8351 8.35825H39.2397V16.4089H51.4631V20.3288H39.2397V32.2994H34.7296V4.48047H54.8351V8.35825ZM79.7595 8.35825H64.1641V16.4089H76.3875V20.3288H64.1641V32.2994H59.654V4.48047H79.7595V8.35825Z" fill="#5E0097"/>
<path d="M82.5648 32.2994V11.2244H86.4004L86.8219 15.0179C87.974 12.2079 90.1799 10.8029 93.4394 10.8029C93.8609 10.8029 94.2824 10.8451 94.7039 10.9294C95.1254 10.9856 95.4767 11.0839 95.7577 11.2244L95.1254 15.1865C94.8163 15.0741 94.4651 14.9898 94.0717 14.9336C93.7064 14.8493 93.2006 14.8072 92.5543 14.8072C91.6551 14.8072 90.784 15.046 89.941 15.5237C89.1261 15.9733 88.4377 16.6758 87.8757 17.6312C87.3418 18.5585 87.0748 19.7247 87.0748 21.1297V32.2994H82.5648ZM110.903 18.7693C110.903 17.3643 110.51 16.2824 109.723 15.5237C108.964 14.7369 107.91 14.3435 106.562 14.3435C105.297 14.3435 104.201 14.6386 103.274 15.2287C102.375 15.8188 101.728 16.7742 101.335 18.0949L97.5415 16.4932C98.0754 14.7791 99.1151 13.4022 100.661 12.3625C102.234 11.3228 104.257 10.8029 106.73 10.8029C108.388 10.8029 109.863 11.0839 111.156 11.6459C112.477 12.1798 113.502 13.0088 114.233 14.1328C114.992 15.2287 115.371 16.6196 115.371 18.3056V27.705C115.371 28.7447 115.891 29.2646 116.93 29.2646C117.436 29.2646 117.928 29.1943 118.406 29.0538L118.153 32.1729C117.506 32.482 116.692 32.6366 115.708 32.6366C114.584 32.6366 113.615 32.3837 112.8 31.8779C111.985 31.3721 111.437 30.6134 111.156 29.6018C110.481 30.6415 109.512 31.4283 108.248 31.9622C106.983 32.468 105.719 32.7209 104.454 32.7209C102.459 32.7209 100.801 32.2432 99.4804 31.2878C98.1597 30.3324 97.4993 28.8993 97.4993 26.9885C97.4993 25.443 98.0051 24.1645 99.0167 23.1529C100.056 22.1413 101.518 21.4388 103.4 21.0454L110.903 19.5701V18.7693ZM102.052 26.6513C102.052 27.4381 102.347 28.0703 102.937 28.548C103.555 28.9976 104.37 29.2224 105.381 29.2224C106.337 29.2224 107.236 29.0679 108.079 28.7588C108.922 28.4497 109.596 27.9439 110.102 27.2414C110.636 26.5389 110.903 25.6256 110.903 24.5017V22.7314L105.592 23.8273C104.384 24.0521 103.485 24.3752 102.895 24.7967C102.333 25.2182 102.052 25.8364 102.052 26.6513ZM129.969 32.7209C128.227 32.7209 126.653 32.2853 125.248 31.4142C123.843 30.5431 122.719 29.2927 121.876 27.6629C121.061 26.0331 120.654 24.0802 120.654 21.8041C120.654 19.4437 121.089 17.4486 121.96 15.8188C122.832 14.189 123.998 12.9526 125.459 12.1096C126.92 11.2385 128.522 10.8029 130.264 10.8029C131.781 10.8029 133.102 11.1682 134.226 11.8988C135.378 12.6013 136.235 13.5427 136.797 14.7229V1.74072H141.307V32.2994H137.303L137.05 28.2951C136.488 29.7001 135.561 30.796 134.268 31.5828C132.976 32.3415 131.542 32.7209 129.969 32.7209ZM130.938 29.096C132.709 29.096 134.128 28.4216 135.195 27.0728C136.263 25.724 136.797 23.8694 136.797 21.509C136.797 19.3172 136.263 17.6031 135.195 16.3667C134.156 15.1022 132.793 14.47 131.107 14.47C129.224 14.47 127.763 15.1163 126.723 16.4089C125.684 17.7015 125.164 19.4858 125.164 21.7619C125.164 24.038 125.67 25.8364 126.681 27.1571C127.693 28.4497 129.112 29.096 130.938 29.096ZM149.735 7.68385C148.752 7.68385 147.993 7.44501 147.459 6.96731C146.953 6.46151 146.7 5.75901 146.7 4.85981C146.7 3.96062 146.953 3.27217 147.459 2.79447C147.993 2.31677 148.752 2.07792 149.735 2.07792C150.691 2.07792 151.421 2.31677 151.927 2.79447C152.461 3.27217 152.728 3.96062 152.728 4.85981C152.728 5.75901 152.461 6.46151 151.927 6.96731C151.421 7.44501 150.691 7.68385 149.735 7.68385ZM151.969 11.2244V32.2994H147.459V11.2244H151.969ZM167.329 10.8029C169.38 10.8029 171.193 11.2385 172.766 12.1096C174.34 12.9807 175.562 14.2452 176.434 15.9031C177.333 17.5329 177.782 19.4858 177.782 21.7619C177.782 24.038 177.333 26.005 176.434 27.6629C175.562 29.2927 174.34 30.5431 172.766 31.4142C171.193 32.2853 169.38 32.7209 167.329 32.7209C165.278 32.7209 163.465 32.2853 161.892 31.4142C160.318 30.5431 159.082 29.2927 158.183 27.6629C157.283 26.005 156.834 24.038 156.834 21.7619C156.834 19.4858 157.283 17.5329 158.183 15.9031C159.082 14.2452 160.318 12.9807 161.892 12.1096C163.465 11.2385 165.278 10.8029 167.329 10.8029ZM167.329 14.3435C165.475 14.3435 164.013 14.9898 162.946 16.2824C161.878 17.5469 161.344 19.3734 161.344 21.7619C161.344 24.1504 161.878 25.9909 162.946 27.2835C164.013 28.548 165.475 29.1803 167.329 29.1803C169.184 29.1803 170.631 28.548 171.671 27.2835C172.738 25.9909 173.272 24.1504 173.272 21.7619C173.272 19.3734 172.738 17.5469 171.671 16.2824C170.631 14.9898 169.184 14.3435 167.329 14.3435Z" fill="#5E0097"/>
<rect x="3.54785" y="41.2188" width="175.624" height="3.51249" rx="1.75624" fill="#5E0097"/>
<rect x="1.7916" y="35.95" width="72.006" height="14.05" rx="7.02498" fill="#5E0097"/>
<path d="M38.7967 39.6105V43.2233C38.7967 43.9777 38.5856 44.5487 38.1634 44.9363C37.7412 45.317 37.1321 45.5073 36.3362 45.5073C35.5472 45.5073 34.9416 45.317 34.5194 44.9363C34.0972 44.5487 33.8861 43.9777 33.8861 43.2233V39.6105H34.7166V43.1091C34.7166 44.2303 35.2565 44.791 36.3362 44.791C37.4228 44.791 37.9661 44.2303 37.9661 43.1091V39.6105H38.7967ZM41.3035 39.6105V45.4243H40.4729V39.6105H41.3035Z" fill="white"/>
</svg>
